<mxfile host="app.diagrams.net" modified="2023-11-29T07:54:56.072Z" agent="Mozilla/5.0 (Windows NT 10.0; Win64; x64) AppleWebKit/537.36 (KHTML, like Gecko) Chrome/121.0.0.0 Safari/537.36 Edg/121.0.0.0" version="22.1.4" etag="JSZCkJzqovLaCcie3ezs" type="github">
  <diagram name="第 1 页" id="5pVogULmG85ZV94-cCva">
    <mxGraphModel>
      <root>
        <mxCell id="0" />
        <mxCell id="1" parent="0" />
      </root>
    </mxGraphModel>
  </diagram>
</mxfile>
